<svg xmlns="http://www.w3.org/2000/svg" viewBox="0 0 512 512" width="180" height="180">
    <defs>
        <linearGradient id="bg" x1="0%" y1="0%" x2="100%" y2="100%">
            <stop offset="0%" stop-color="#2D1B4E" />
            <stop offset="100%" stop-color="#0F081C" />
        </linearGradient>

        <linearGradient id="beer" x1="0%" y1="0%" x2="0%" y2="100%">
            <stop offset="0%" stop-color="#FDE68A" />
            <stop offset="50%" stop-color="#F59E0B" />
            <stop offset="100%" stop-color="#B45309" />
        </linearGradient>
    </defs>

    <rect x="0" y="0" width="512" height="512" rx="115" fill="url(#bg)"/>

    <g stroke="#38BDF8" fill="none" stroke-linecap="round" stroke-width="18">
        <path d="M 150 130 Q 256 50 362 130" opacity="0.3"/>
        <path d="M 185 170 Q 256 110 327 170" opacity="0.6"/>
        <path d="M 220 210 Q 256 175 292 210" opacity="1.0"/>
    </g>

    <g transform="translate(0, 15)">
        <path d="M 320 290 H 350 A 40 40 0 0 1 390 330 V 350 A 40 40 0 0 1 350 390 H 320" fill="none" stroke="#F59E0B" stroke-width="24" stroke-linecap="round" stroke-linejoin="round"/>

        <rect x="156" y="260" width="160" height="180" rx="20" fill="#1E1433" stroke="#4C3A6E" stroke-width="8"/>

        <path d="M 166 280 L 306 280 L 306 410 A 10 10 0 0 1 296 420 L 176 420 A 10 10 0 0 1 166 410 Z" fill="url(#beer)"/>

        <circle cx="200" cy="380" r="8" fill="#FFFFFF" opacity="0.5"/>
        <circle cx="200" cy="340" r="4" fill="#FFFFFF" opacity="0.3"/>
        <circle cx="270" cy="360" r="10" fill="#FFFFFF" opacity="0.4"/>
        <circle cx="240" cy="400" r="6" fill="#FFFFFF" opacity="0.6"/>

        <path d="M 140 280
             C 140 240, 160 230, 180 240
             C 190 200, 240 190, 270 220
             C 290 200, 330 210, 330 250
             C 350 250, 350 280, 330 280
             Z" fill="#FFFFFF"/>

        <path d="M 180 300 V 400" stroke="#FFFFFF" stroke-width="8" stroke-linecap="round" opacity="0.3"/>
    </g>
</svg>
